<?xml version="1.0" encoding="utf-8"?>
<!-- Generator: Adobe Illustrator 25.2.1, SVG Export Plug-In . SVG Version: 6.00 Build 0)  -->
<svg version="1.1" id="Layer_1" xmlns="http://www.w3.org/2000/svg" xmlns:xlink="http://www.w3.org/1999/xlink" x="0px" y="0px"
	 viewBox="0 0 256 256" style="enable-background:new 0 0 256 256;" xml:space="preserve">
<style type="text/css">
	.st0{fill:#FF4151;}
	.st1{fill:#0F111A;}
</style>
<path class="st0" d="M128,249.5c159.7-2.7,159.7-240.3,0-243C-31.7,9.2-31.7,246.8,128,249.5z"/>
<path class="st1" d="M128,0c-168.3,2.9-168.2,253.2,0,256C296.3,253.1,296.2,2.8,128,0z M128,13c151.1,2.6,151.1,227.4,0,230
	C-23.1,240.4-23.1,15.6,128,13z"/>
<path class="st1" d="M129.4,36.9c119.8,2,119.8,180.2,0,182.2C65.8,220.5,20,151.2,45.2,93.3c34,42,91.5-15.6,49.5-49.5
	C105.4,39.3,117.1,36.9,129.4,36.9z"/>
</svg>
