<?xml version="1.0" encoding="utf-8"?>
<!-- Generator: Adobe Illustrator 25.2.1, SVG Export Plug-In . SVG Version: 6.00 Build 0)  -->
<svg version="1.1" id="Layer_1" xmlns="http://www.w3.org/2000/svg" xmlns:xlink="http://www.w3.org/1999/xlink" x="0px" y="0px"
	 viewBox="0 0 256 256" style="enable-background:new 0 0 256 256;" xml:space="preserve">
<style type="text/css">
	.st0{fill-rule:evenodd;clip-rule:evenodd;fill:#0F111A;}
</style>
<path class="st0" d="M128,256c70.7,0,128-57.3,128-128S198.7,0,128,0S0,57.3,0,128S57.3,256,128,256L128,256z M128,236.8
	c-60.1,0-108.8-48.7-108.8-108.8S67.9,19.2,128,19.2S236.8,67.9,236.8,128S188.1,236.8,128,236.8L128,236.8z"/>
<path class="st0" d="M128,230.4c56.6,0,102.4-45.8,102.4-102.4S184.6,25.6,128,25.6S25.6,71.4,25.6,128S71.4,230.4,128,230.4
	L128,230.4z M128,32c-3.5,0-6.4,2.9-6.4,6.4v83.2H76.8c-3.5,0-6.4,2.8-6.4,6.4c0,3.5,2.9,6.4,6.4,6.4h57.6v-96
	C134.4,34.9,131.6,32,128,32L128,32z"/>
</svg>
