<?xml version="1.0" encoding="utf-8"?>
<!-- Generator: Adobe Illustrator 25.2.1, SVG Export Plug-In . SVG Version: 6.00 Build 0)  -->
<svg version="1.1" id="Layer_1" xmlns="http://www.w3.org/2000/svg" xmlns:xlink="http://www.w3.org/1999/xlink" x="0px" y="0px"
	 viewBox="0 0 256 256" style="enable-background:new 0 0 256 256;" xml:space="preserve">
<style type="text/css">
	.st0{fill:#FF4151;}
	.st1{fill:#0F111A;}
</style>
<rect class="st0" width="256" height="256"/>
<path class="st1" d="M105.5,160h39.2v-10.7h-27.1v-16.5h25v-10.7h-25v-15.5h27.1V96h-39.2V160L105.5,160z M197,142.6
	c0-12.8-0.9-15.5-18-19.7c-11-2.7-11.2-2.9-11.2-10.2c0-5.6,1.4-7.3,9.6-7.3c5.6,0,11.8,0.8,17.1,1.9l1.3-10.2
	c-6.3-1.4-13.1-2.1-18.6-2.1c-16.2,0-21.5,5.8-21.5,17.4c0,13.5,2.1,16.5,17.6,20c11.5,2.5,11.7,3.1,11.7,10.2c0,6.1-1.4,8-10.2,8
	c-6.3,0-12.1-1.2-18-3l-2.1,9.5c4.2,2,12.7,3.8,20,3.8C193.4,160.9,197,154.7,197,142.6L197,142.6L197,142.6z M219.3,118.8
	c0-9.8,4.7-11.7,16-11.7c2,0,6.2,0.3,9,0.9l0.8-9.8c-2.9-0.7-7.5-1.2-11-1.2c-17.5,0-26.5,5.4-26.5,22.3v23.3
	c0,11,3.3,18.3,19.8,18.3c15.1,0,19.7-7.5,19.7-17.5v-4.6c0-11-4.7-15.8-16.3-15.8c-4.1,0-8.1,0.6-11.4,1.7V118.8L219.3,118.8z
	 M228.9,133.1c4.2,0,6.4,1.4,6.4,6v4.7c0,4.9-1.9,7-8,7c-6,0-8.1-1.7-8.1-7v-8.7C222,134,225.4,133.1,228.9,133.1L228.9,133.1
	L228.9,133.1z"/>
</svg>
