<?xml version="1.0" encoding="utf-8"?>
<!-- Generator: Adobe Illustrator 25.2.1, SVG Export Plug-In . SVG Version: 6.00 Build 0)  -->
<svg version="1.1" id="Layer_1" xmlns="http://www.w3.org/2000/svg" xmlns:xlink="http://www.w3.org/1999/xlink" x="0px" y="0px"
	 viewBox="0 0 256 296" style="enable-background:new 0 0 256 296;" xml:space="preserve">
<style type="text/css">
	.st0{fill:#FF4151;}
	.st1{fill:#0F111A;}
</style>
<polygon class="st0" points="128,0 256,73.9 256,221.7 128,295.6 0,221.7 0,73.9 "/>
<path class="st1" d="M34.9,220.5c17,21.8,71.1,5.2,122.2-34.7s80.2-88.3,63.2-110.1s-71.1-5.2-122.2,34.7S17.8,198.7,34.9,220.5z
	 M42.1,214.8c-5.6-7.2-3.2-21.4,7.6-39.3c11.3-18.8,30.5-39.5,54.1-57.9s48.3-32,69.3-38.4c19.9-6.1,34.3-5.1,39.9,2.1
	c5.6,7.2,3.2,21.4-7.6,39.3c-11.3,18.8-30.5,39.5-54.1,57.9s-48.3,32-69.3,38.4C62.1,223.1,47.8,222,42.1,214.8z"/>
<path class="st1" d="M220.2,220.5c17-21.8-12.2-70.2-63.2-110.1S51.9,53.9,34.9,75.6S47,145.9,98.1,185.8S203.2,242.3,220.2,220.5z
	 M213,214.8c-5.6,7.2-20,8.3-39.9,2.1c-21-6.4-45.8-20.1-69.3-38.4S61,139.4,49.7,120.6c-10.8-17.9-13.2-32-7.6-39.3
	c5.6-7.2,20-8.3,39.9-2.1c21,6.4,45.8,20.1,69.3,38.4s42.7,39.1,54.1,57.9C216.1,193.4,218.6,207.6,213,214.8z"/>
<path class="st1" d="M127.6,167.7c10.8,0,19.6-8.8,19.6-19.6s-8.8-19.6-19.6-19.6s-19.6,8.8-19.6,19.6S116.7,167.7,127.6,167.7
	L127.6,167.7z"/>
</svg>
