<?xml version="1.0" encoding="utf-8"?>
<!-- Generator: Adobe Illustrator 25.2.1, SVG Export Plug-In . SVG Version: 6.00 Build 0)  -->
<svg version="1.1" id="Layer_1" xmlns="http://www.w3.org/2000/svg" xmlns:xlink="http://www.w3.org/1999/xlink" x="0px" y="0px"
	 viewBox="0 0 256 210" style="enable-background:new 0 0 256 210;" xml:space="preserve">
<style type="text/css">
	.st0{fill:#FF4151;}
	.st1{fill:#0F111A;}
</style>
<g>
	<path class="st0" d="M5,0h246c2.8,0,5,2.2,5,5v199.3c0,2.8-2.2,5-5,5H5c-2.8,0-5-2.2-5-5V5C0,2.2,2.2,0,5,0z"/>
	<path class="st1" d="M28.2,21.8c-0.9-0.9-1.9-1.3-3.1-1.3c-1.2,0-2.2,0.4-3.1,1.3c-0.9,0.9-1.3,1.9-1.3,3.1c0,1.2,0.4,2.2,1.3,3.1
		l13.4,13.4L22,54.9c-0.9,0.9-1.3,1.9-1.3,3.1c0,1.2,0.4,2.2,1.3,3.1c0.9,0.9,1.9,1.3,3.1,1.3c1.2,0,2.3-0.4,3.1-1.3l14.9-14.9
		c3.1-3.1,3.1-6.3,0-9.4L28.2,21.8L28.2,21.8z M86.8,54.9c-0.9-0.9-1.9-1.3-3.1-1.3v0H54.8v0c-1.2,0-2.3,0.4-3.1,1.3
		c-0.9,0.9-1.3,1.9-1.3,3.1c0,1.2,0.4,2.3,1.3,3.1c0.9,0.9,1.9,1.3,3.1,1.3v0h28.8v0c1.2,0,2.3-0.4,3.1-1.3c0.9-0.9,1.3-1.9,1.3-3.1
		C88.1,56.8,87.6,55.7,86.8,54.9L86.8,54.9L86.8,54.9z"/>
</g>
</svg>
